<svg width="296" height="296" viewBox="0 0 296 296" fill="none" xmlns="http://www.w3.org/2000/svg">
<path fill-rule="evenodd" clip-rule="evenodd" d="M45.5 273V60.3789C45.525 60.1438 45.5877 59.6687 45.73 59.0342C46.0548 57.5856 46.6938 55.743 47.8701 53.9942C49.3507 51.7929 54.2708 45.5 72.6032 45.5H72.895H73.1891H73.4855H73.7842H74.0851H74.3883H74.6938H75.0015H75.3114H75.6236H75.9379H76.2544H76.5731H76.894H77.2171H77.5423H77.8696H78.199H78.5306H78.8643H79.2H79.5378H79.8777H80.2197H80.5637H80.9098H81.2578H81.6079H81.96H82.314H82.6701H83.0281H83.3881H83.75H84.1138H84.4796H84.8473H85.2168H85.5883H85.9616H86.3368H86.7139H87.0928H87.4735H87.8561H88.2404H88.6266H89.0146H89.4043H89.7958H90.189H90.584H90.9807H91.3791H91.7793H92.1811H92.5846H92.9898H93.3967H93.8052H94.2153H94.6271H95.0405H95.4555H95.8721H96.2903H96.7101H97.1314H97.5542H97.9786H98.4046H98.832H99.261H99.6914H100.123H100.557H100.992H101.428H101.866H102.305H102.745H103.187H103.631H104.076H104.522H104.969H105.418H105.868H106.32H106.773H107.227H107.682H108.139H108.597H109.056H109.516H109.978H110.441H110.905H111.37H111.837H112.305H112.774H113.244H113.715H114.187H114.66H115.135H115.611H116.087H116.565H117.044H117.524H118.005H118.487H118.97H119.454H119.939H120.425H120.912H121.4H121.889H122.379H122.869H123.361H123.854H124.347H124.842H125.337H125.833H126.33H126.828H127.326H127.826H128.326H128.827H129.329H129.832H130.335H130.839H131.344H131.85H132.356H132.863H133.371H133.879H134.388H134.898H135.408H135.919H136.431H136.943H137.456H137.969H138.483H138.998H139.513H140.029H140.545H141.062H141.579H142.097H142.615H143.134H143.653H144.173H144.693H145.214H145.735H146.256H146.778H147.3H147.823H148.345H148.869H149.392H149.916H150.441H150.965H151.49H152.015H152.541H153.067H153.593H154.119H154.645H155.172H155.699H156.226H156.753H157.281H157.808H158.336H158.864H159.392H159.92H160.448H160.977H161.505H162.034H162.562H163.091H163.62H164.148H164.677H165.206H165.735H166.263H166.792H167.321H167.849H168.378H168.906H169.435H169.963H170.491H171.019H171.547H172.075H172.603H173.13H173.658H174.185H174.712H175.238H175.765H176.291H176.817H177.343H177.868H178.394H178.919H179.443H179.968H180.492H181.015H181.539H182.062H182.585H183.107H183.629H184.15H184.671H185.192H185.712H186.232H186.751H187.27H187.788H188.306H188.824H189.341H189.857H190.373H190.888H191.403H191.917H192.431H192.943H193.456H193.968H194.479H194.989H195.499H196.008H196.517H197.025H197.532H198.038H198.544H199.049H199.553H200.057H200.56H201.062H201.563H202.063H202.563H203.062H203.56H204.057H204.553H205.049H205.543H206.037H206.53H207.022H207.513H208.003H208.492H208.98H209.467H209.953H210.439H210.923H211.406H211.888H212.369H212.85H213.329H213.807H214.284H214.76H215.234H215.708H216.18H216.652H217.122H217.591H218.059H218.526H218.992H219.456H219.919H220.381H220.842H221.301H221.76H222.216H222.672H223.127H223.58H224.031H224.482H224.931H225.379H225.825H226.27H226.714H227.156H227.597H228.037H228.475H228.911H229.346H229.78H230.212H230.643H231.072H231.5H231.926H232.351H232.774H233.196H233.616H234.035H234.452H234.867H235.281H235.693H236.103H236.512H236.919H237.325H237.729H238.131H238.531H238.93H239.327H239.723H240.116H240.508H240.898H241.287H241.673H242.058H242.441H242.822H243.201H243.579H243.954H244.328H244.7H245.07H245.438H245.804H246.168H246.531H246.891H247.249H247.606H247.96H248.313H248.663H249.012H249.358H249.703H250.045H250.386H250.724H251.06H251.394H251.726H252.056H252.384H252.71H253.033H253.354H253.674H253.991H254.305H254.618H254.928H255.237H255.542H255.846H256.148H256.447H256.744H257.038H257.331H257.62H257.908H258.193H258.476H258.757H259.035H259.311H259.585H259.856H260.124H260.391H260.654H260.916H261.174H261.431H261.685H261.936H262.185H262.432H262.675H262.917H263.156H263.392H263.625H263.857H264.085H264.311H264.534H264.755H264.973H265.188H265.401H265.611H265.818H266.023H266.225H266.424H266.62H266.814H267.005H267.193H267.378H267.561H267.741H267.918H268.092H268.263H268.432H268.598H268.76H268.92H269.077H269.232H269.383H269.531H269.677H269.819H269.958H270.095H270.229H270.359H270.487H270.611H270.733H270.851H270.967H271.079H271.188H271.294H271.398H271.498H271.594H271.688H271.779H271.866H271.951H272.032H272.11H272.185H272.256H272.325H272.39H272.452H272.51H272.566H272.618H272.667H272.712H272.755H272.794H272.829H272.862H272.891H272.916H272.938H272.957H272.973H272.985H272.993H272.998C272.999 45.5 273 45.5 273 23V45.5C285.426 45.5 295.5 35.4264 295.5 23C295.5 10.5736 285.426 0.5 273 0.5V23C273 0.5 272.999 0.5 272.998 0.5H272.993H272.985H272.973H272.957H272.938H272.916H272.891H272.862H272.829H272.794H272.755H272.712H272.667H272.618H272.566H272.51H272.452H272.39H272.325H272.256H272.185H272.11H272.032H271.951H271.866H271.779H271.688H271.594H271.498H271.398H271.294H271.188H271.079H270.967H270.851H270.733H270.611H270.487H270.359H270.229H270.095H269.958H269.819H269.677H269.531H269.383H269.232H269.077H268.92H268.76H268.598H268.432H268.263H268.092H267.918H267.741H267.561H267.378H267.193H267.005H266.814H266.62H266.424H266.225H266.023H265.818H265.611H265.401H265.188H264.973H264.755H264.534H264.311H264.085H263.857H263.625H263.392H263.156H262.917H262.675H262.432H262.185H261.936H261.685H261.431H261.174H260.916H260.654H260.391H260.124H259.856H259.585H259.311H259.035H258.757H258.476H258.193H257.908H257.62H257.331H257.038H256.744H256.447H256.148H255.846H255.542H255.237H254.928H254.618H254.305H253.991H253.674H253.354H253.033H252.71H252.384H252.056H251.726H251.394H251.06H250.724H250.386H250.045H249.703H249.358H249.012H248.663H248.313H247.96H247.606H247.249H246.891H246.531H246.168H245.804H245.438H245.07H244.7H244.328H243.954H243.579H243.201H242.822H242.441H242.058H241.673H241.287H240.898H240.508H240.116H239.723H239.327H238.93H238.531H238.131H237.729H237.325H236.919H236.512H236.103H235.693H235.281H234.867H234.452H234.035H233.616H233.196H232.774H232.351H231.926H231.5H231.072H230.643H230.212H229.78H229.346H228.911H228.475H228.037H227.597H227.156H226.714H226.27H225.825H225.379H224.931H224.482H224.031H223.58H223.127H222.672H222.216H221.76H221.301H220.842H220.381H219.919H219.456H218.992H218.526H218.059H217.591H217.122H216.652H216.18H215.708H215.234H214.76H214.284H213.807H213.329H212.85H212.369H211.888H211.406H210.923H210.439H209.953H209.467H208.98H208.492H208.003H207.513H207.022H206.53H206.037H205.543H205.049H204.553H204.057H203.56H203.062H202.563H202.063H201.563H201.062H200.56H200.057H199.553H199.049H198.544H198.038H197.532H197.025H196.517H196.008H195.499H194.989H194.479H193.968H193.456H192.943H192.431H191.917H191.403H190.888H190.373H189.857H189.341H188.824H188.306H187.788H187.27H186.751H186.232H185.712H185.192H184.671H184.15H183.629H183.107H182.585H182.062H181.539H181.015H180.492H179.968H179.443H178.919H178.394H177.868H177.343H176.817H176.291H175.765H175.238H174.712H174.185H173.658H173.13H172.603H172.075H171.547H171.019H170.491H169.963H169.435H168.906H168.378H167.849H167.321H166.792H166.263H165.735H165.206H164.677H164.148H163.62H163.091H162.562H162.034H161.505H160.977H160.448H159.92H159.392H158.864H158.336H157.808H157.281H156.753H156.226H155.699H155.172H154.645H154.119H153.593H153.067H152.541H152.015H151.49H150.965H150.441H149.916H149.392H148.869H148.345H147.823H147.3H146.778H146.256H145.735H145.214H144.693H144.173H143.653H143.134H142.615H142.097H141.579H141.062H140.545H140.029H139.513H138.998H138.483H137.969H137.456H136.943H136.431H135.919H135.408H134.898H134.388H133.879H133.371H132.863H132.356H131.85H131.344H130.839H130.335H129.832H129.329H128.827H128.326H127.826H127.326H126.828H126.33H125.833H125.337H124.842H124.347H123.854H123.361H122.869H122.379H121.889H121.4H120.912H120.425H119.939H119.454H118.97H118.487H118.005H117.524H117.044H116.565H116.087H115.611H115.135H114.66H114.187H113.715H113.244H112.774H112.305H111.837H111.37H110.905H110.441H109.978H109.516H109.056H108.597H108.139H107.682H107.227H106.773H106.32H105.868H105.418H104.969H104.522H104.076H103.631H103.187H102.745H102.305H101.866H101.428H100.992H100.557H100.123H99.6914H99.261H98.832H98.4046H97.9786H97.5542H97.1314H96.7101H96.2903H95.8721H95.4555H95.0405H94.6271H94.2153H93.8052H93.3967H92.9898H92.5846H92.1811H91.7793H91.3791H90.9807H90.584H90.189H89.7958H89.4043H89.0146H88.6266H88.2404H87.8561H87.4735H87.0928H86.7139H86.3368H85.9616H85.5883H85.2168H84.8473H84.4796H84.1138H83.75H83.3881H83.0281H82.6701H82.314H81.96H81.6079H81.2578H80.9098H80.5637H80.2197H79.8777H79.5378H79.2H78.8643H78.5306H78.199H77.8696H77.5423H77.2171H76.894H76.5731H76.2544H75.9379H75.6236H75.3114H75.0015H74.6938H74.3883H74.0851H73.7842H73.4855H73.1891H72.895H72.6032C41.3324 0.5 21.4509 12.6437 10.5307 28.879C5.5066 36.3485 3.04542 43.7242 1.8201 49.1893C1.20119 51.9497 0.874012 54.3261 0.700039 56.1367C0.612669 57.046 0.562798 57.8245 0.534697 58.4511C0.520628 58.7649 0.511961 59.0418 0.506807 59.2793C0.50423 59.3981 0.502529 59.5072 0.501471 59.6062C0.500942 59.6558 0.500574 59.7028 0.50034 59.7473L0.500082 59.8121L0.500019 59.8431C0.500006 59.8582 0.5 59.8732 23 59.8732H0.5V273C0.5 285.426 10.5736 295.5 23 295.5C35.4264 295.5 45.5 285.426 45.5 273ZM113 90.5C100.574 90.5 90.5 100.574 90.5 113C90.5 125.426 100.574 135.5 113 135.5H207.2C214.43 135.5 220.29 141.36 220.29 148.59C220.29 155.819 214.43 161.68 207.2 161.68H177.895H123C105.051 161.68 90.5 176.23 90.5 194.18V259.105C90.5 271.532 100.574 281.605 113 281.605C125.426 281.605 135.5 271.532 135.5 259.105V206.68H167.617L225.783 273.836C233.918 283.229 248.128 284.248 257.521 276.113C266.914 267.977 267.933 253.768 259.798 244.375L224.799 203.966C248.278 196.511 265.29 174.537 265.29 148.59C265.29 116.508 239.282 90.5 207.2 90.5H113Z" fill="white"/>
</svg>
